#!OML:ASF F:\VICON\USERDATA\INSTALL\rory3\rory3.ASF
:FULLY-SPECIFIED
:DEGREES
1
root -0.4299809999999997 18.1925 -35.88880000000007 7.925019999999995 -6.283880000000003 1.6473800000000067
lfemur 15.857400000000077 -4.321449999999996 -31.26749999999999
ltibia 33.78569999999996
lfoot 29.740899999999986 -23.22489999999998
ltoes -13.245100000000008
rfemur -40.99519999999995 3.8734199999999968 22.490499999999994
rtibia 26.429799999999958
rfoot -1.5824199999999906 -2.14794
rtoes -20.592900000000046
lowerback 1.0 -0.9074590000000022 -3.28939
upperback -1.1525700000000008 -1.6374099999999956 1.35917
thorax -8.8411 -0.5939209999999993 3.6681599999999945
lowerneck -18.2886 -1.5193100000000013 -1.8711400000000005
upperneck 13.1832 -1.7164100000000047 0.8344369999999972
head 7.05351 -0.8419730000000005 0.38272899999999965
lclavicle 5.50136999999999e-14 2.3854200000000004e-15
lhumerus -41.17329999999998 -13.963400000000002 94.3249
lradius 122.45299999999997
lwrist 37.412399999999984
lhand -24.880700000000015 -0.5495269999999988
lfingers 7.12502
lthumb 1.6267600000000098 29.424
rclavicle 5.50136999999999e-14 2.3854200000000004e-15
rhumerus -67.26170000000003 5.147359999999998 -90.97460000000001
rradius 105.258
rwrist -13.4593
rhand -21.7461 1.0
rfingers 7.12502
rthumb 4.653910000000003 11.181499999999996
2
root -0.4260769999999993 18.1697 -35.3491 7.7091000000000065 -5.64279000000001 1.8514700000000044
lfemur 15.145699999999984 -4.8599199999999945 -31.239399999999993
ltibia 37.61450000000002
lfoot 28.831300000000017 -23.523700000000005
ltoes -13.922100000000007
rfemur -40.62960000000005 2.9328999999999983 22.7273
rtibia 25.034700000000022
rfoot -1.9579900000000081 -2.7636999999999956
rtoes -22.62629999999997
lowerback 1.0 -1.4964500000000007 -3.582759999999997
upperback -1.4089100000000006 -2.433139999999994 1.8150300000000004
thorax -9.0059 -0.9418089999999983 4.497849999999999
lowerneck -16.259200000000003 -1.2901299999999938 -2.929150000000001
upperneck 12.1762 -1.212499999999995 0.9262820000000016
head 6.38873 -0.6464299999999987 0.649497
lclavicle 7.524000000000008e-14 -8.746530000000002e-15
lhumerus -42.29950000000002 -12.4074 94.8919
lradius 121.71399999999998
lwrist 37.58540000000001
lhand -25.109099999999998 -0.3640089999999999
lfingers 7.12502
lthumb 1.4062200000000074 29.6111
rclavicle 7.524000000000008e-14 -8.746530000000002e-15
rhumerus -67.32419999999996 6.127750000000001 -90.48690000000002
rradius 104.93200000000002
rwrist -13.4804
rhand -21.81909999999999 1.0
rfingers 7.12502
rthumb 4.583470000000004 11.091399999999993
3
root -0.4193500000000007 18.147 -34.80599999999998 7.517550000000001 -4.750220000000012 1.7676900000000022
lfemur 14.144399999999948 -5.413580000000001 -30.7426
ltibia 41.7982
lfoot 30.36769999999999 -23.544700000000027
ltoes -8.29851
rfemur -40.37779999999999 1.9705300000000001 23.256000000000004
rtibia 24.567400000000063
rfoot -1.9452799999999972 -3.7476899999999924
rtoes -23.335500000000046
lowerback 1.0 -1.7051199999999993 -2.570809999999997
upperback -0.77683 -2.5670300000000066 1.38772
thorax -8.219570000000001 -1.0971399999999996 3.455419999999997
lowerneck -17.8814 -1.6521900000000023 -2.25338
upperneck 12.406299999999998 -1.8186899999999926 0.9277090000000019
head 6.73853 -0.9017300000000013 0.4678749999999996
lclavicle 5.5262100000000136e-14 -1.987849999999998e-14
lhumerus -41.37649999999999 -13.443599999999998 94.2971
lradius 120.43400000000001
lwrist 37.9169
lhand -25.931800000000003 -0.7375410000000007
lfingers 7.12502
lthumb 0.611632999999995 29.2413
rclavicle 5.5262100000000136e-14 -1.987849999999998e-14
rhumerus -65.3695 4.541859999999983 -90.36929999999998
rradius 104.289
rwrist -13.7894
rhand -20.1971 1.0
rfingers 7.12502
rthumb 6.149519999999998 10.427200000000003
4
root -0.41674500000000053 18.1125 -34.26629999999995 7.157369999999998 -4.531170000000006 1.6125799999999986
lfemur 13.149299999999982 -5.139020000000006 -30.245099999999972
ltibia 45.80840000000001
lfoot 31.863599999999995 -23.821299999999994
ltoes -6.9627000000000026
rfemur -39.778699999999986 1.4156299999999988 23.9188
rtibia 24.290000000000063
rfoot -1.413260000000014 -4.330080000000004
rtoes -23.0
lowerback 1.0 -1.373750000000003 -1.9559999999999962
upperback -0.1855650000000002 -2.060459999999998 1.0163199999999994
thorax -7.902990000000002 -0.8984849999999986 2.610620000000002
lowerneck -20.5251 -2.109050000000003 -1.2690099999999989
upperneck 13.256599999999999 -2.621690000000003 0.7285770000000023
head 7.45289 -1.2452899999999982 0.1268379999999999
lclavicle 3.1308600000000053e-15 7.55381999999998e-15
lhumerus -40.3959 -14.996400000000003 94.0095
lradius 118.98400000000001
lwrist 38.0013
lhand -26.51999999999999 -0.8430450000000005
lfingers 7.12502
lthumb 0.043507300000004356 29.1367
rclavicle 3.1308600000000053e-15 7.55381999999998e-15
rhumerus -63.50359999999999 2.3997599999999846 -90.09969999999998
rradius 103.789
rwrist -13.7532
rhand -18.9557 1.0
rfingers 7.12502
rthumb 7.347929999999999 10.244900000000003
5
root -0.4137199999999996 18.0629 -33.732500000000044 6.820799999999996 -4.800779999999993 1.1952099999999968
lfemur 11.940800000000014 -4.384759999999994 -29.475800000000007
ltibia 49.990700000000004
lfoot 34.722199999999994 -23.293200000000017
ltoes -2.9317800000000034
rfemur -39.24800000000003 1.0442699999999998 24.964299999999998
rtibia 24.652200000000065
rfoot -0.6173940000000013 -4.578980000000001
rtoes -22.149299999999986
lowerback 1.0 -1.115449999999998 -1.6060300000000047
upperback 0.04671539999999841 -1.6576900000000037 1.09984
thorax -7.9005600000000005 -0.7172570000000027 2.4275699999999976
lowerneck -21.380599999999998 -2.142199999999997 -0.9454930000000024
upperneck 13.2765 -2.723559999999996 0.5813310000000009
head 7.595129999999999 -1.288090000000002 0.005123189999999056
lclavicle 1.8834799999999988e-14 -4.770829999999997e-15
lhumerus -40.276299999999985 -15.217300000000002 94.1637
lradius 117.558
lwrist 38.039900000000024
lhand -26.390099999999997 -0.010034700000000146
lfingers 7.12502
lthumb 0.1689549999999933 29.9696
rclavicle 1.8834799999999988e-14 -4.770829999999997e-15
rhumerus -62.46309999999998 1.6175300000000004 -89.82559999999998
rradius 103.445
rwrist -13.305699999999998
rhand -19.0883 1.0
rfingers 7.12502
rthumb 7.21987 10.318499999999993
6
root -0.4087379999999993 17.9928 -33.206099999999935 6.506259999999996 -5.27937999999999 0.7160170000000039
lfemur 10.588699999999989 -3.5010100000000026 -28.645000000000017
ltibia 54.3229
lfoot 36.95380000000007 -22.104400000000012
ltoes -1.5443299999999818
rfemur -38.91350000000003 0.33449100000000054 26.292699999999996
rtibia 25.7586000000001
rfoot 0.0055317000000063565 -3.845000000000005
rtoes -22.696100000000026
lowerback 1.0 -1.2322599999999968 -1.5142299999999975
upperback -0.13697499999999974 -1.7563500000000043 1.6043000000000005
thorax -8.049590000000002 -0.753971 2.9384099999999935
lowerneck -19.1535 -1.845450000000004 -1.8128799999999994
upperneck 12.2216 -2.1301900000000042 0.7267109999999977
head 6.88678 -1.0438700000000012 0.28841000000000055
lclavicle -2.186630000000007e-15 -1.1927099999999994e-15
lhumerus -41.41709999999999 -13.506799999999998 94.7193
lradius 116.15300000000002
lwrist 37.79400000000001
lhand -26.13320000000001 0.1900179999999999
lfingers 7.12502
lthumb 0.4170720000000001 30.1694
rclavicle -2.186630000000007e-15 -1.1927099999999994e-15
rhumerus -62.362 2.647519999999991 -89.58300000000003
rradius 103.005
rwrist -12.994699999999998
rhand -19.410600000000002 1.0
rfingers 7.12502
rthumb 6.908760000000002 10.4623
7
root -0.408341 17.9014 -32.68959999999998 6.040560000000006 -5.972119999999995 0.22823500000000507
lfemur 9.258719999999979 -2.2967700000000018 -27.688599999999994
ltibia 58.802299999999995
lfoot 37.84010000000003 -20.87560000000002
ltoes -2.578120000000011
rfemur -38.634200000000035 -0.09525459999999875 27.505299999999995
rtibia 27.6284
rfoot 0.39318499999999457 -2.3683300000000083
rtoes -21.2324
lowerback 1.0 -1.0305800000000005 -1.1496899999999985
upperback 0.2709589999999985 -1.4285300000000043 1.6272200000000006
thorax -7.639750000000001 -0.619498999999998 2.6788199999999978
lowerneck -19.0264 -1.8892599999999993 -1.9051499999999995
upperneck 12.0288 -2.2164800000000007 1.0306800000000025
head 6.80876 -1.0620199999999989 0.39419099999999985
lclavicle 2.981769999999998e-15 -8.348960000000006e-15
lhumerus -41.209900000000005 -13.0686 94.4097
lradius 114.392
lwrist 37.5538
lhand -26.17949999999999 0.3557160000000001
lfingers 7.12502
lthumb 0.3723490000000096 30.3351
rclavicle 2.981769999999998e-15 -8.348960000000006e-15
rhumerus -60.893499999999996 2.432010000000009 -89.75630000000001
rradius 102.33199999999998
rwrist -12.8996
rhand -19.5001 1.0
rfingers 7.12502
rthumb 6.822380000000001 10.654700000000002
8
root -0.406757 17.7933 -32.171900000000036 5.485230000000004 -6.460399999999991 -0.140501
lfemur 7.804549999999992 -1.0753699999999993 -26.663400000000006
ltibia 63.341399999999986
lfoot 37.620399999999925 -19.697300000000013
ltoes -3.4826100000000046
rfemur -38.392799999999994 -0.43378599999999956 28.3718
rtibia 30.156500000000072
rfoot 0.6619939999999991 0.09471539999998946
rtoes -13.565700000000007
lowerback 1.0 -0.7937110000000009 -0.23777600000000243
upperback 0.9950479999999983 -1.015039999999999 1.0545500000000008
thorax -6.958329999999996 -0.4716380000000017 1.456769999999999
lowerneck -20.482 -2.045499999999998 -1.0788699999999987
upperneck 12.5481 -2.6999000000000066 1.3962000000000023
head 7.22 -1.2100500000000018 0.31089500000000064
lclavicle -2.4897800000000036e-14 -2.2661499999999962e-14
lhumerus -40.28410000000002 -13.7901 93.385
lradius 112.573
lwrist 37.62450000000001
lhand -26.5036 0.308709
lfingers 7.12502
lthumb 0.059339700000003326 30.2884
rclavicle -2.4897800000000036e-14 -2.2661499999999962e-14
rhumerus -58.65159999999999 1.1974400000000003 -90.62990000000002
rradius 101.48700000000001
rwrist -12.637099999999997
rhand -19.8283 1.0
rfingers 7.12502
rthumb 6.50558 11.0229
